<svg width="773" height="133" fill="none" xmlns="http://www.w3.org/2000/svg"><mask id="a" maskUnits="userSpaceOnUse" x=".168" y=".224" width="773" height="133" fill="#000"><path fill="#fff" d="M.168.224h773v133h-773z"/><defs><linearGradient id="b" gradientTransform="rotate(90)"><stop offset="5%" stop-color="#d9a7c7"/><stop offset="95%" stop-color="#fffcdc"/></linearGradient></defs><path d="M58.624 6.48h10.112v20.608H58.624V6.48zM10.88 20.048h106.88v27.648h-10.112v-18.56h-87.04v18.56H10.88V20.048zm42.624 14.848l9.984 2.176c-9.472 19.456-22.912 45.312-32 60.8l-9.856-2.688c9.344-15.36 23.168-41.472 31.872-60.288zm33.92 26.496l10.624 1.536C87.552 102.608 60.16 117.456 16 124.496c-1.024-2.304-3.968-6.528-5.76-8.704 43.392-5.376 68.864-18.816 77.184-54.4zm-80.256-5.76h113.664v9.088H7.168v-9.088zm21.888 35.072l6.528-6.784c26.88 7.424 61.184 21.248 79.104 32.64l-7.168 7.936C90.496 113.104 56.576 98.64 29.056 90.704zM177.28 15.568h62.976v9.088H177.28v-9.088zm-10.752 46.464h85.248v9.216h-85.248v-9.216zm38.528-18.816h9.6v68.608c0 6.272-1.536 9.216-6.016 10.752-4.608 1.536-12.416 1.664-24.448 1.664-.512-2.688-1.92-6.912-3.456-9.728 9.6.384 18.432.256 20.992.256 2.56-.128 3.328-.768 3.328-2.944V43.216zm31.872-27.648h2.176l1.92-.512 6.656 4.48c-9.088 11.776-23.424 24.576-35.328 32.256-1.408-1.792-4.096-4.608-5.888-6.016 11.008-6.912 24.064-19.072 30.464-28.16v-2.048zm-71.424-8.192l9.344 2.944c-9.088 22.4-23.424 44.544-38.528 58.88-1.024-2.304-4.096-7.168-5.888-9.472 13.952-12.672 27.136-32.256 35.072-52.352zM151.68 41.424l9.344-9.472.128.128v91.904h-9.472v-82.56zM328.064 26.704c-1.664 13.312-4.224 28.288-8.192 41.984-7.808 26.24-18.048 39.808-29.824 39.808-11.52 0-22.912-13.056-22.912-34.304 0-27.776 24.704-51.968 56.064-51.968 29.952 0 49.024 21.12 49.024 47.104 0 26.752-17.664 44.672-48.128 48.64l-5.888-9.472c4.096-.384 7.936-.896 11.008-1.536 16.384-3.712 32.512-16 32.512-38.144 0-20.48-14.208-37.376-38.784-37.376-28.16 0-45.696 23.168-45.696 41.984 0 16.128 7.296 23.296 13.056 23.296 6.016 0 12.928-8.704 19.456-30.336 3.712-12.16 6.4-26.624 7.68-39.936l10.624.256zM416.512 6.224l9.984 2.304c-6.016 19.072-16 37.12-26.624 48.768-2.048-1.664-6.4-4.48-8.832-5.888 11.008-10.624 20.096-27.648 25.472-45.184zM416 23.76h79.36v9.344h-84.096L416 23.76zm-25.216 41.6h114.432v9.6H390.784v-9.6zm52.224-37.632h9.984v96.64h-9.984v-96.64zM525.44 13.776h30.464v88.704H525.44v-8.576h21.504V22.48H525.44v-8.704zm.896 26.496h26.112v8.32h-26.112v-8.32zm33.536-6.144h72.32v8.192h-72.32v-8.192zm-.128 52.736h72.576v8.064h-72.576v-8.064zm-3.584 25.984h78.848v8.448H556.16v-8.448zm1.28-53.376h77.568v8.576H557.44v-8.576zm-31.104 7.296h26.112v8.32h-26.112v-8.32zm-4.992-52.992h8.832v99.84h-8.832v-99.84zm69.632 3.712h8.96v100.096h-8.96V17.488zM569.6 37.584h7.936v52.608H569.6V37.584zm44.288 0h8.192v52.608h-8.192V37.584zm9.088-29.952l6.784 7.168c-17.408 4.224-44.16 6.656-66.56 7.552-.256-2.176-1.408-5.504-2.432-7.68 21.888-1.024 47.872-3.456 62.208-7.04zM671.616 55.888h89.728v9.088h-89.728v-9.088zm38.016-19.456h9.6v87.808h-9.6V36.432zM707.2 60.88l8.32 2.816c-9.344 20.864-25.856 40.704-42.624 51.072-1.536-2.304-4.608-5.888-6.912-7.68C682.368 98 698.752 79.312 707.2 60.88zm13.824 0c9.088 17.664 26.624 36.096 42.88 45.056-2.304 1.92-5.504 5.504-7.168 8.064-16.128-10.496-33.664-30.464-43.648-50.304l7.936-2.816zM702.72 6.608h9.856v21.76h-9.856V6.608zM660.096 23.12h101.76v9.216h-101.76V23.12zm-4.736 0h9.6v33.152c0 19.712-1.792 48.64-12.8 68.096-1.664-1.664-5.888-4.352-8.192-5.376 10.496-18.432 11.392-44.288 11.392-62.72V23.12z"/></mask><path d="M58.624 6.48h10.112v20.608H58.624V6.48zM10.88 20.048h106.88v27.648h-10.112v-18.56h-87.04v18.56H10.88V20.048zm42.624 14.848l9.984 2.176c-9.472 19.456-22.912 45.312-32 60.8l-9.856-2.688c9.344-15.36 23.168-41.472 31.872-60.288zm33.92 26.496l10.624 1.536C87.552 102.608 60.16 117.456 16 124.496c-1.024-2.304-3.968-6.528-5.76-8.704 43.392-5.376 68.864-18.816 77.184-54.4zm-80.256-5.76h113.664v9.088H7.168v-9.088zm21.888 35.072l6.528-6.784c26.88 7.424 61.184 21.248 79.104 32.64l-7.168 7.936C90.496 113.104 56.576 98.64 29.056 90.704zM177.28 15.568h62.976v9.088H177.28v-9.088zm-10.752 46.464h85.248v9.216h-85.248v-9.216zm38.528-18.816h9.6v68.608c0 6.272-1.536 9.216-6.016 10.752-4.608 1.536-12.416 1.664-24.448 1.664-.512-2.688-1.92-6.912-3.456-9.728 9.6.384 18.432.256 20.992.256 2.56-.128 3.328-.768 3.328-2.944V43.216zm31.872-27.648h2.176l1.92-.512 6.656 4.48c-9.088 11.776-23.424 24.576-35.328 32.256-1.408-1.792-4.096-4.608-5.888-6.016 11.008-6.912 24.064-19.072 30.464-28.16v-2.048zm-71.424-8.192l9.344 2.944c-9.088 22.4-23.424 44.544-38.528 58.88-1.024-2.304-4.096-7.168-5.888-9.472 13.952-12.672 27.136-32.256 35.072-52.352zM151.68 41.424l9.344-9.472.128.128v91.904h-9.472v-82.56z" stroke="#000" stroke-width="10" mask="url(#a)"/><path d="M328.064 26.704c-1.664 13.312-4.224 28.288-8.192 41.984-7.808 26.24-18.048 39.808-29.824 39.808-11.52 0-22.912-13.056-22.912-34.304 0-27.776 24.704-51.968 56.064-51.968 29.952 0 49.024 21.12 49.024 47.104 0 26.752-17.664 44.672-48.128 48.64l-5.888-9.472c4.096-.384 7.936-.896 11.008-1.536 16.384-3.712 32.512-16 32.512-38.144 0-20.48-14.208-37.376-38.784-37.376-28.16 0-45.696 23.168-45.696 41.984 0 16.128 7.296 23.296 13.056 23.296 6.016 0 12.928-8.704 19.456-30.336 3.712-12.16 6.4-26.624 7.68-39.936l10.624.256z" stroke="url('#b')" stroke-width="15" mask="url(#a)"/><path d="M416.512 6.224l9.984 2.304c-6.016 19.072-16 37.12-26.624 48.768-2.048-1.664-6.4-4.48-8.832-5.888 11.008-10.624 20.096-27.648 25.472-45.184zM416 23.76h79.36v9.344h-84.096L416 23.76zm-25.216 41.6h114.432v9.6H390.784v-9.6zm52.224-37.632h9.984v96.64h-9.984v-96.64zM525.44 13.776h30.464v88.704H525.44v-8.576h21.504V22.48H525.44v-8.704zm.896 26.496h26.112v8.32h-26.112v-8.32zm33.536-6.144h72.32v8.192h-72.32v-8.192zm-.128 52.736h72.576v8.064h-72.576v-8.064zm-3.584 25.984h78.848v8.448H556.16v-8.448zm1.28-53.376h77.568v8.576H557.44v-8.576zm-31.104 7.296h26.112v8.32h-26.112v-8.32zm-4.992-52.992h8.832v99.84h-8.832v-99.84zm69.632 3.712h8.96v100.096h-8.96V17.488zM569.6 37.584h7.936v52.608H569.6V37.584zm44.288 0h8.192v52.608h-8.192V37.584zm9.088-29.952l6.784 7.168c-17.408 4.224-44.16 6.656-66.56 7.552-.256-2.176-1.408-5.504-2.432-7.68 21.888-1.024 47.872-3.456 62.208-7.04zM671.616 55.888h89.728v9.088h-89.728v-9.088zm38.016-19.456h9.6v87.808h-9.6V36.432zM707.2 60.88l8.32 2.816c-9.344 20.864-25.856 40.704-42.624 51.072-1.536-2.304-4.608-5.888-6.912-7.68C682.368 98 698.752 79.312 707.2 60.88zm13.824 0c9.088 17.664 26.624 36.096 42.88 45.056-2.304 1.92-5.504 5.504-7.168 8.064-16.128-10.496-33.664-30.464-43.648-50.304l7.936-2.816zM702.72 6.608h9.856v21.76h-9.856V6.608zM660.096 23.12h101.76v9.216h-101.76V23.12zm-4.736 0h9.6v33.152c0 19.712-1.792 48.64-12.8 68.096-1.664-1.664-5.888-4.352-8.192-5.376 10.496-18.432 11.392-44.288 11.392-62.72V23.12z" stroke="#000" stroke-width="10" mask="url(#a)"/></svg>